<svg width="18" height="30" viewBox="0 0 18 30" fill="none" xmlns="http://www.w3.org/2000/svg">
<path d="M16.9739 29.3397C17.3967 28.9167 17.6342 28.3431 17.6342 27.7451C17.6342 27.147 17.3967 26.5735 16.9739 26.1505L5.80974 14.9864L16.9739 3.82223C17.3847 3.39686 17.6121 2.82714 17.6069 2.23579C17.6018 1.64443 17.3646 1.07875 16.9464 0.660585C16.5283 0.24242 15.9626 0.00522614 15.3712 8.7738e-05C14.7799 -0.00505257 14.2102 0.222279 13.7848 0.633116L1.02607 13.3918C0.603249 13.8148 0.365723 14.3883 0.365723 14.9864C0.365723 15.5844 0.603249 16.158 1.02607 16.5809L13.7848 29.3397C14.2077 29.7625 14.7813 30 15.3793 30C15.9774 30 16.5509 29.7625 16.9739 29.3397Z" fill="white"/>
</svg>
