<svg width="18" height="30" viewBox="0 0 18 30" fill="none" xmlns="http://www.w3.org/2000/svg">
<path d="M1.0261 29.3397C0.603283 28.9167 0.365757 28.3431 0.365757 27.7451C0.365757 27.147 0.603283 26.5735 1.0261 26.1505L12.1903 14.9864L1.0261 3.82223C0.615267 3.39686 0.387936 2.82714 0.393076 2.23579C0.398214 1.64443 0.63541 1.07875 1.05358 0.660585C1.47174 0.24242 2.03742 0.00522614 2.62878 8.7738e-05C3.22013 -0.00505257 3.78985 0.222279 4.21522 0.633116L16.9739 13.3918C17.3968 13.8148 17.6343 14.3883 17.6343 14.9864C17.6343 15.5844 17.3968 16.158 16.9739 16.5809L4.21522 29.3397C3.79227 29.7625 3.21871 30 2.62066 30C2.02261 30 1.44905 29.7625 1.0261 29.3397Z" fill="white"/>
</svg>
