<svg width="51" height="44" viewBox="0 0 51 44" fill="none" xmlns="http://www.w3.org/2000/svg">
<g clip-path="url(#clip0_936_141)">
<path d="M17.8325 8.88281C19.5854 11.8091 21.1536 14.7607 19.4695 18.4729C19.1291 16.0537 19.4804 13.6598 18.0317 11.686C17.579 13.0948 17.7746 14.5797 18.4953 15.8871C18.8357 16.5064 19.0422 17.1981 19.3681 18.0057C16.3006 16.7454 16.0579 12.2908 17.8325 8.88643V8.88281Z" fill="#E04F00"/>
<path d="M22.2404 3.7002C22.0955 4.71063 21.9036 5.66675 21.8312 6.63735C21.6827 8.6872 22.1535 10.6248 23.0589 12.461C23.3704 13.0911 23.3245 13.7201 22.9213 14.3478C20.8678 13.2106 19.4735 6.87638 22.2404 3.70382V3.7002Z" fill="#3383FF"/>
<path d="M24.6384 15.1153C24.9136 14.7894 25.1201 14.3475 25.4677 14.1519C28.7526 12.3158 29.5312 9.34965 29.2741 5.8946C29.2632 5.77146 29.2596 5.64833 29.2487 5.48535C30.3497 6.84709 30.2375 10.1537 28.9952 12.3484C28.0645 13.989 26.7752 15.1515 24.8122 15.2964C24.7543 15.2348 24.6927 15.1769 24.6348 15.1153H24.6384Z" fill="#3383FF"/>
<path d="M18.4232 21.6197C15.4208 20.1384 13.8889 15.8794 15.4027 13.0146C15.4027 13.5398 15.3556 14.0722 15.4099 14.5901C15.6309 16.6037 16.482 18.3421 17.8582 19.8052C18.3543 20.3304 18.5463 20.8736 18.4195 21.6233L18.4232 21.6197Z" fill="#FCB900"/>
<path d="M29.744 24.6695C27.7123 23.9669 26.26 18.5888 28.2918 16.0029C28.2918 16.8323 28.2628 17.8391 28.299 18.8495C28.3497 20.3127 28.8821 21.6273 29.6281 22.8732C30.1134 23.6808 30.099 23.6917 29.744 24.6731V24.6695Z" fill="#3383FF"/>
<path d="M31.4902 24.7059C31.7582 24.2568 31.9031 23.8041 32.2073 23.5433C34.268 21.7977 35.0974 19.5631 34.967 16.9193C34.967 16.8795 35.0032 16.8396 35.025 16.7998C36.8684 19.5378 34.4672 24.5465 31.4902 24.7059Z" fill="#3383FF"/>
<path d="M35.1223 24.1191C35.4663 26.4551 32.3264 29.577 30.0049 29.088C30.2258 28.7548 30.3634 28.4217 30.6097 28.2152C30.9103 27.9617 31.2906 27.7987 31.6491 27.6213C33.1956 26.8499 34.4414 25.7815 35.1223 24.1191Z" fill="#FCB900"/>
<path d="M28.4556 27.3855C26.5397 26.509 25.5076 24.1767 26.0001 21.877C26.0653 21.9095 26.1631 21.9313 26.1739 21.9711C26.5542 23.5429 27.3872 24.8757 28.4013 26.1034C28.7381 26.509 28.9228 26.8966 28.4556 27.3819V27.3855Z" fill="#FCB900"/>
<path d="M25.0983 38.7534C24.2146 37.7249 23.4794 36.7362 22.6102 35.8851C18.1846 31.5319 13.4837 28.9026 7.45001 27.5879C6.70395 27.4249 5.92529 27.5408 5.20459 28.2615C4.97642 28.4897 3.75955 29.884 3.26339 30.3585C4.76275 30.5794 6.13173 30.7315 7.4826 30.9886C8.81175 31.2421 10.1373 31.5464 11.4374 31.9266C12.7593 32.3141 14.074 32.7596 15.3452 33.2847C16.5947 33.8026 17.8224 34.393 18.9958 35.0666C20.1656 35.733 22.2444 37.1346 22.5921 37.5583C22.143 37.3591 21.7012 37.1164 21.5273 37.0295C16.1963 34.3314 10.7819 32.9298 4.82069 32.4192C3.65815 32.3214 2.82155 32.5025 2.04651 33.3717C1.4417 34.0453 0.692019 34.5849 0.00390625 35.1825C0.0220145 35.2477 0.0401227 35.3165 0.0582309 35.3817C7.71077 35.197 15.0229 36.4102 21.6577 40.4737C21.1579 41.361 21.3281 41.8717 22.2444 42.2411C22.3422 42.2809 22.4364 42.3171 22.5269 42.3533C22.784 42.4548 23.0195 42.5634 23.3019 42.6431C24.1639 42.893 24.9172 43.1573 25.8878 43.534C26.7715 43.1827 27.9449 42.7988 29.0423 42.2556C30.0925 41.7377 30.1215 41.2415 29.2958 40.4303C36.0248 36.5804 43.326 35.2187 51.0039 35.3092C50.0949 34.3821 49.2112 33.5636 48.2732 32.8176C47.9762 32.5785 47.5199 32.3866 47.1505 32.4083C40.9864 32.7922 35.123 34.3423 29.5565 37.0114C29.1074 37.2287 28.6692 37.475 28.2274 37.7068C30.9146 35.3744 34.0148 33.8099 37.3394 32.6654C40.6569 31.5246 44.0721 30.7931 47.5597 30.4309C46.7267 29.4168 45.9553 28.4788 45.0825 27.4141C37.4372 28.9279 30.7046 32.3178 25.6814 38.8585L25.3264 39.1373L25.1019 38.7534H25.0983ZM28.604 41.4009C28.604 41.7485 26.7135 42.5525 25.8117 42.7481C25.2287 42.5091 24.0154 42.1107 23.3345 41.8499C23.0738 41.7485 22.6645 41.5674 22.6645 41.2669C22.6645 40.6367 24.2363 40.1007 25.417 40.1007C27.2278 40.1007 28.604 40.6584 28.604 41.4009Z" fill="#0A3658"/>
<path d="M12.3574 21.2036C13.6721 24.4486 17.4096 26.4514 19.7057 25.1983C18.9198 22.5436 15.8451 20.8596 12.3574 21.2036ZM14.9433 22.6124C14.9831 22.54 15.023 22.4676 15.0628 22.3915C16.2905 23.0543 17.5219 23.717 18.7496 24.3798C16.9931 24.6985 15.9247 23.7352 14.9433 22.6124Z" fill="#FCB900"/>
<path d="M21.6501 21.3952C21.8928 21.2177 22.2622 20.4101 22.5302 20.334C25.0907 19.6314 25.978 18.2733 26.3872 15.8613C26.4017 15.7744 26.4198 15.6911 26.4379 15.5752C26.9631 16.6943 26.3256 18.9433 25.1015 20.2363C24.1853 21.2032 23.106 21.7791 21.737 21.5473C21.7081 21.4966 21.6755 21.4459 21.6465 21.3952H21.6501Z" fill="#E04F00"/>
<path d="M25.677 38.8554C25.8074 37.8703 26.0718 36.9757 26.0066 36.1029C25.9124 34.8317 26.4303 33.8285 26.9772 32.7783C28.9184 29.0624 30.8922 25.3684 32.3734 21.4244C33.5577 18.2736 33.0797 15.2893 31.928 12.2689C29.1828 14.9018 28.712 20.1423 31.1529 22.022C31.1964 21.3809 31.4354 20.7363 31.2362 20.2908C30.3924 18.4257 30.7546 16.6692 31.4753 14.7859C32.2829 17.0712 32.1236 19.2478 31.5224 21.4208C30.6025 24.7382 29.0089 27.7623 27.4009 30.7755C26.8685 31.7751 26.3506 32.7855 25.8943 33.6583C25.3004 32.7131 24.7499 31.7316 24.0907 30.8262C23.3809 29.852 22.5407 28.9755 21.8091 28.0158C20.2844 26.0166 19.8389 23.7604 20.6755 21.3954C21.1391 20.088 21.8924 18.8784 22.5878 17.6651C23.4859 16.1006 24.4964 14.5976 25.3837 13.0258C27.687 8.94421 27.8355 4.73224 26.0175 0.455078C23.2252 3.09526 22.6022 9.26654 24.9672 11.157C25.4018 10.3929 25.4452 9.62508 25.1193 8.78848C24.3587 6.83642 24.8296 4.97489 25.5973 3.05542C26.4014 5.90565 26.2203 8.61464 25.2026 11.2766C25.2497 11.157 24.2682 13.8878 21.5013 18.1649C18.7959 22.3515 19.0422 25.6617 22.2509 29.4463C22.7399 30.0222 23.2324 30.5908 23.7105 31.1775C25.1084 32.8941 25.8219 34.8136 25.3945 37.059C25.2859 37.6313 25.199 38.1745 25.1012 38.7431L25.3257 39.127L25.6806 38.8481L25.677 38.8554Z" fill="#219C90"/>
</g>
<defs>
<clipPath id="clip0_936_141">
<rect width="51" height="43.0686" fill="white" transform="translate(0 0.46582)"/>
</clipPath>
</defs>
</svg>
