<svg width="141" height="120" viewBox="0 0 141 120" fill="none" xmlns="http://www.w3.org/2000/svg">
<g clip-path="url(#clip0_354_399)">
<path d="M49.2619 23.2955C54.1113 31.3918 58.4391 39.5464 53.79 49.8087C52.851 43.123 53.815 36.5041 49.817 31.0412C48.565 34.9391 49.1075 39.0415 51.094 42.6514C52.033 44.3625 52.6047 46.2738 53.5062 48.5066C45.0218 45.0177 44.3541 32.7064 49.2577 23.2955H49.2619Z" fill="black"/>
<path d="M61.4483 8.96431C61.0518 11.7563 60.5176 14.4063 60.3215 17.0814C59.9041 22.7488 61.2062 28.1032 63.7144 33.1779C64.5769 34.9224 64.4503 36.6599 63.3346 38.3904C57.6547 35.2437 53.8069 17.7325 61.4524 8.96431H61.4483Z" fill="black"/>
<path d="M68.0752 40.5272C68.8306 39.6257 69.4107 38.4071 70.3705 37.8688C79.4475 32.7898 81.6009 24.5892 80.8957 15.0365C80.8706 14.6985 80.8539 14.3562 80.8247 13.9014C83.8754 17.6699 83.5624 26.8136 80.1236 32.8775C77.5528 37.4097 73.9846 40.6232 68.5635 41.0238C68.4007 40.8569 68.238 40.6941 68.0752 40.5272Z" fill="black"/>
<path d="M50.8938 58.5059C42.5973 54.4118 38.3572 42.6347 42.5472 34.7096C42.5472 36.1619 42.4136 37.6309 42.5722 39.0665C43.1815 44.6296 45.5311 49.4414 49.3455 53.4812C50.7185 54.9377 51.2486 56.4359 50.898 58.5059H50.8938Z" fill="black"/>
<path d="M82.1936 66.936C76.5763 64.9954 72.5574 50.1258 78.1789 42.9727C78.1789 45.2639 78.0996 48.0517 78.1997 50.8395C78.3458 54.8876 79.8106 58.5226 81.8764 61.9614C83.2202 64.1983 83.1785 64.2233 82.1936 66.936Z" fill="black"/>
<path d="M87.0181 67.0445C87.7651 65.8008 88.1574 64.5488 89.0046 63.831C94.7012 59.0067 96.9923 52.8301 96.6292 45.5143C96.6251 45.41 96.7336 45.2973 96.792 45.1846C101.883 52.755 95.2437 66.6021 87.0181 67.0445Z" fill="black"/>
<path d="M97.0548 65.4169C98.0021 71.8772 89.3258 80.5076 82.9072 79.1555C83.5207 78.2332 83.9005 77.3109 84.5766 76.7391C85.4029 76.038 86.4587 75.5915 87.4478 75.099C91.7213 72.9664 95.1685 70.0159 97.0548 65.4211V65.4169Z" fill="black"/>
<path d="M78.6297 74.4521C73.3337 72.0316 70.4792 65.5796 71.8439 59.2278C72.0191 59.3197 72.2988 59.3739 72.3238 59.4908C73.3755 63.8394 75.675 67.5161 78.4795 70.9173C79.4059 72.04 79.9193 73.1083 78.6297 74.4563V74.4521Z" fill="black"/>
<path d="M141 96.3329C138.492 93.7705 136.046 91.5085 133.446 89.4386C132.62 88.7792 131.364 88.245 130.345 88.3076C113.306 89.3676 97.0922 93.6536 81.701 101.032C80.4532 101.629 79.2513 102.313 78.0243 102.956C85.4528 96.5123 94.0207 92.1804 103.219 89.0212C112.392 85.8704 121.828 83.8421 131.48 82.8405C129.181 80.0402 127.048 77.4486 124.628 74.5022C103.494 78.6922 84.8769 88.0655 70.9881 106.136C71.347 103.415 72.0815 100.936 71.902 98.5239C71.6433 95.0141 73.0747 92.2347 74.5855 89.3342C79.9482 79.0595 85.4069 68.8474 89.5009 57.9508C92.7728 49.2453 91.454 40.9946 88.2698 32.6438C80.6827 39.9179 79.3806 54.4118 86.1247 59.6118C86.2416 57.8423 86.9093 56.0561 86.3501 54.825C84.0214 49.6709 85.0188 44.8132 87.0095 39.609C89.2422 45.9275 88.7998 51.9454 87.1347 57.9508C84.5931 67.1238 80.1861 75.4788 75.7373 83.8171C74.2599 86.5798 72.8327 89.3718 71.5682 91.7881C69.9197 89.1756 68.4048 86.4588 66.5852 83.959C64.6237 81.2672 62.2992 78.8425 60.2793 76.1924C56.0601 70.6628 54.8289 64.432 57.1451 57.8924C58.4263 54.2783 60.513 50.9313 62.4327 47.5759C64.9117 43.2482 67.712 39.0999 70.1617 34.7513C76.5261 23.4708 76.9434 11.823 71.9145 0C64.1897 7.29497 62.4703 24.3639 69.0141 29.5889C70.2202 27.4772 70.337 25.3571 69.4356 23.0451C67.3281 17.6532 68.6385 12.5033 70.7543 7.19899C72.9746 15.0782 72.4738 22.5693 69.6609 29.9269C67.0651 36.7086 63.3634 42.8893 59.4321 48.974C51.9493 60.5466 52.6338 69.6987 61.5063 80.1571C62.8542 81.7471 64.2231 83.3246 65.5377 84.9397C69.4064 89.6889 71.372 94.9932 70.191 101.195C69.8988 102.743 69.6484 104.296 69.3813 105.848C66.9358 103.01 64.8992 100.277 62.4995 97.9146C50.2633 85.8787 37.2634 78.6088 20.5826 74.9738C18.5168 74.5231 16.3717 74.8444 14.3727 76.8393C13.7425 77.4695 10.3747 81.3298 9.00999 82.636C13.1541 83.2412 16.9393 83.6668 20.6703 84.3763C24.347 85.0774 28.0111 85.9163 31.6044 86.9638C35.2644 88.0321 38.891 89.2633 42.4091 90.7198C45.8646 92.1512 49.2576 93.7872 52.5002 95.6401C55.7346 97.4889 61.4854 101.358 62.4411 102.53C61.1974 101.979 59.9747 101.312 59.4989 101.07C44.7587 93.6119 29.7932 89.7307 13.3169 88.3284C10.0992 88.053 7.79138 88.5622 5.64212 90.9576C3.97279 92.8189 1.89447 94.3088 -0.00439453 95.9656C0.0456854 96.1493 0.091592 96.3329 0.141672 96.5165C21.3004 96.0115 41.516 99.3586 59.8536 110.593C58.4723 113.043 58.948 114.458 61.477 115.484C61.7483 115.593 62.0071 115.697 62.2575 115.797C62.9627 116.077 63.6138 116.377 64.3984 116.603C66.7855 117.291 68.8638 118.03 71.5473 119.065C73.9887 118.093 77.2355 117.028 80.2695 115.53C83.17 114.099 83.2535 112.73 80.9748 110.489C99.5753 99.851 119.766 96.0867 140.996 96.3287L141 96.3329ZM79.0801 113.168C79.0801 114.128 73.8593 116.356 71.3595 116.899C69.7528 116.244 66.3932 115.142 64.5111 114.412C63.7932 114.132 62.6581 113.627 62.6581 112.797C62.6581 111.052 67.0025 109.571 70.2702 109.571C75.2824 109.566 79.0801 111.111 79.0801 113.168Z" fill="black"/>
<path d="M34.1211 57.354C37.7602 66.3225 48.0892 71.8605 54.441 68.3966C52.2625 61.0516 43.7698 56.3983 34.1211 57.354ZM41.2658 61.2561C41.3743 61.0516 41.4828 60.8513 41.5955 60.6468C44.9926 62.4789 48.3939 64.311 51.791 66.1431C46.9374 67.0278 43.9868 64.3569 41.27 61.2561H41.2658Z" fill="black"/>
<path d="M59.812 57.8882C60.4839 57.3958 61.5022 55.163 62.2492 54.9585C69.3314 53.0138 71.7811 49.2578 72.9163 42.593C72.958 42.3551 73.0039 42.1214 73.0581 41.8042C74.5105 44.9008 72.7451 51.1149 69.3648 54.6914C66.8357 57.3624 63.8434 58.9608 60.0624 58.3139C59.9789 58.172 59.8955 58.0301 59.812 57.8924V57.8882Z" fill="black"/>
</g>
<defs>
<clipPath id="clip0_354_399">
<rect width="141" height="119.069" fill="white"/>
</clipPath>
</defs>
</svg>
