<svg width="15" height="20" viewBox="0 0 15 20" fill="none" xmlns="http://www.w3.org/2000/svg">
<path d="M0.0267505 1.00106L0.0267497 19.0011C0.027321 19.1833 0.0775844 19.3619 0.172128 19.5177C0.266671 19.6735 0.401915 19.8006 0.563302 19.8853C0.72469 19.9699 0.90611 20.0089 1.08803 19.9982C1.26996 19.9874 1.44549 19.9272 1.59575 19.8241L14.5957 10.8241C15.1347 10.4511 15.1347 9.55306 14.5957 9.17906L1.59575 0.179061C1.44581 0.0748863 1.27018 0.0137956 1.08796 0.0024266C0.905729 -0.00894237 0.723872 0.0298453 0.562143 0.114575C0.400414 0.199305 0.264997 0.326737 0.170607 0.483025C0.0762167 0.639314 0.0264625 0.818481 0.0267505 1.00106Z" fill="white"/>
</svg>
