<svg width="25" height="24" viewBox="0 0 25 24" fill="none" xmlns="http://www.w3.org/2000/svg">
<path d="M3.7 20V20.8H5.3V20H3.7ZM11.7 20V20.8H13.3V20H11.7ZM5.3 20V19.2H3.7V20H5.3ZM11.7 19.2V20H13.3V19.2H11.7ZM8.5 16C9.34869 16 10.1626 16.3371 10.7627 16.9373C11.3629 17.5374 11.7 18.3513 11.7 19.2H13.3C13.3 17.927 12.7943 16.7061 11.8941 15.8059C10.9939 14.9057 9.77304 14.4 8.5 14.4V16ZM5.3 19.2C5.3 18.3513 5.63714 17.5374 6.23726 16.9373C6.83737 16.3371 7.65131 16 8.5 16V14.4C7.22696 14.4 6.00606 14.9057 5.10589 15.8059C4.20571 16.7061 3.7 17.927 3.7 19.2H5.3ZM8.5 6.4C7.65131 6.4 6.83737 6.73714 6.23726 7.33726C5.63714 7.93737 5.3 8.75131 5.3 9.6H6.9C6.9 9.17565 7.06857 8.76869 7.36863 8.46863C7.66869 8.16857 8.07565 8 8.5 8V6.4ZM11.7 9.6C11.7 8.75131 11.3629 7.93737 10.7627 7.33726C10.1626 6.73714 9.34869 6.4 8.5 6.4V8C8.92435 8 9.33131 8.16857 9.63137 8.46863C9.93143 8.76869 10.1 9.17565 10.1 9.6H11.7ZM8.5 12.8C9.34869 12.8 10.1626 12.4629 10.7627 11.8627C11.3629 11.2626 11.7 10.4487 11.7 9.6H10.1C10.1 10.0243 9.93143 10.4313 9.63137 10.7314C9.33131 11.0314 8.92435 11.2 8.5 11.2V12.8ZM8.5 11.2C8.07565 11.2 7.66869 11.0314 7.36863 10.7314C7.06857 10.4313 6.9 10.0243 6.9 9.6H5.3C5.3 10.4487 5.63714 11.2626 6.23726 11.8627C6.83737 12.4629 7.65131 12.8 8.5 12.8V11.2ZM2.9 4.8H22.1V3.2H2.9V4.8ZM22.9 5.6V18.4H24.5V5.6H22.9ZM22.1 19.2H2.9V20.8H22.1V19.2ZM2.1 18.4V5.6H0.5V18.4H2.1ZM2.9 19.2C2.68783 19.2 2.48434 19.1157 2.33431 18.9657C2.18429 18.8157 2.1 18.6122 2.1 18.4H0.5C0.5 19.0365 0.752856 19.647 1.20294 20.0971C1.65303 20.5471 2.26348 20.8 2.9 20.8V19.2ZM22.9 18.4C22.9 18.6122 22.8157 18.8157 22.6657 18.9657C22.5157 19.1157 22.3122 19.2 22.1 19.2V20.8C22.7365 20.8 23.347 20.5471 23.7971 20.0971C24.2471 19.647 24.5 19.0365 24.5 18.4H22.9ZM22.1 4.8C22.3122 4.8 22.5157 4.88429 22.6657 5.03431C22.8157 5.18434 22.9 5.38783 22.9 5.6H24.5C24.5 4.96348 24.2471 4.35303 23.7971 3.90294C23.347 3.45286 22.7365 3.2 22.1 3.2V4.8ZM2.9 3.2C2.26348 3.2 1.65303 3.45286 1.20294 3.90294C0.752856 4.35303 0.5 4.96348 0.5 5.6H2.1C2.1 5.38783 2.18429 5.18434 2.33431 5.03431C2.48434 4.88429 2.68783 4.8 2.9 4.8V3.2ZM14.9 9.6H19.7V8H14.9V9.6ZM14.9 14.4H19.7V12.8H14.9V14.4ZM0.5 24H24.5V22.4H0.5V24ZM5.3 0V4H6.9V0H5.3ZM18.1 0V4H19.7V0H18.1Z" fill="#4F4F4F"/>
</svg>
