<svg width="21" height="22" viewBox="0 0 21 22" fill="none" xmlns="http://www.w3.org/2000/svg">
<path d="M20.2097 7.70968C21.4597 6.45968 20.8897 4.99968 20.2097 4.28968L17.2097 1.28968C15.9497 0.0396849 14.4997 0.609685 13.7897 1.28968L12.0897 2.99968H9.49969C7.59969 2.99968 6.49968 3.99968 5.93968 5.14968L1.49968 9.58969V13.5897L0.789685 14.2897C-0.460315 15.5497 0.109685 16.9997 0.789685 17.7097L3.78968 20.7097C4.32968 21.2497 4.90968 21.4497 5.45968 21.4497C6.16968 21.4497 6.81968 21.0997 7.20968 20.7097L9.90969 17.9997H13.4997C15.1997 17.9997 16.0597 16.9397 16.3697 15.8997C17.4997 15.5997 18.1197 14.7397 18.3697 13.8997C19.9197 13.4997 20.4997 12.0297 20.4997 10.9997V7.99968H19.9097L20.2097 7.70968ZM18.4997 10.9997C18.4997 11.4497 18.3097 11.9997 17.4997 11.9997H16.4997V12.9997C16.4997 13.4497 16.3097 13.9997 15.4997 13.9997H14.4997V14.9997C14.4997 15.4497 14.3097 15.9997 13.4997 15.9997H9.08969L5.80968 19.2797C5.49968 19.5697 5.31968 19.3997 5.20968 19.2897L2.21968 16.3097C1.92968 15.9997 2.09968 15.8197 2.20968 15.7097L3.49968 14.4097V10.4097L5.49968 8.40968V9.99969C5.49968 11.2097 6.29969 12.9997 8.49969 12.9997C10.6997 12.9997 11.4997 11.2097 11.4997 9.99969H18.4997V10.9997ZM18.7897 6.28968L17.0897 7.99968H9.49969V9.99969C9.49969 10.4497 9.30969 10.9997 8.49969 10.9997C7.68969 10.9997 7.49968 10.4497 7.49968 9.99969V6.99968C7.49968 6.53968 7.66969 4.99968 9.49969 4.99968H12.9097L15.1897 2.71968C15.4997 2.42968 15.6797 2.59968 15.7897 2.70968L18.7797 5.68968C19.0697 5.99968 18.8997 6.17968 18.7897 6.28968Z" fill="#4F4F4F"/>
</svg>
