<svg width="25" height="24" viewBox="0 0 25 24" fill="none" xmlns="http://www.w3.org/2000/svg">
<path fill-rule="evenodd" clip-rule="evenodd" d="M12.0948 0.107285C12.3549 -0.0357617 12.6451 -0.0357617 12.9052 0.107285L23.8142 6.10729C24.2284 6.33508 24.5 6.88664 24.5 7.5V16.5C24.5 17.3284 24.0116 18 23.4091 18C22.8066 18 22.3182 17.3284 22.3182 16.5V9.71555L12.9052 14.8927C12.6451 15.0358 12.3549 15.0358 12.0948 14.8927L1.18576 8.89272C0.771583 8.66492 0.5 8.11336 0.5 7.5C0.5 6.88664 0.771583 6.33508 1.18576 6.10729L12.0948 0.107285ZM20.4717 7.5L12.5 11.8845L4.52827 7.5L12.5 3.11555L20.4717 7.5Z" fill="#4F4F4F"/>
<path fill-rule="evenodd" clip-rule="evenodd" d="M5.95455 8.4C6.55704 8.4 7.04545 9.07157 7.04545 9.9V18C7.04545 18.3376 7.26721 19.0894 8.35953 19.8403C9.40083 20.5562 10.8897 21 12.5 21C14.1103 21 15.5992 20.5562 16.6405 19.8403C17.7328 19.0894 17.9545 18.3376 17.9545 18V9.9C17.9545 9.07157 18.443 8.4 19.0455 8.4C19.6479 8.4 20.1364 9.07157 20.1364 9.9V18C20.1364 20.0494 18.9789 21.5868 17.6162 22.5236C16.2025 23.4956 14.3617 24 12.5 24C10.6383 24 8.79752 23.4956 7.3838 22.5236C6.0211 21.5868 4.86364 20.0494 4.86364 18V9.9C4.86364 9.07157 5.35205 8.4 5.95455 8.4Z" fill="#4F4F4F"/>
</svg>
