<svg width="17" height="19" viewBox="0 0 17 19" fill="none" xmlns="http://www.w3.org/2000/svg">
<path fill-rule="evenodd" clip-rule="evenodd" d="M0.25 5C0.25 3.74022 0.750445 2.53204 1.64124 1.64124C2.53204 0.750445 3.74022 0.25 5 0.25H15C15.966 0.25 16.75 1.034 16.75 2V17C16.75 17.4641 16.5656 17.9092 16.2374 18.2374C15.9092 18.5656 15.4641 18.75 15 18.75H4C3.00544 18.75 2.05161 18.3549 1.34835 17.6517C0.645088 16.9484 0.25 15.9946 0.25 15V5ZM15.25 2V11.25H4C3.156 11.25 2.377 11.529 1.75 12V5C1.75 4.13805 2.09241 3.3114 2.7019 2.7019C3.3114 2.09241 4.13805 1.75 5 1.75H8.208C7.94436 3.73305 7.96827 5.74378 8.279 7.72L8.342 8.117C8.36392 8.25621 8.42462 8.38642 8.51715 8.49272C8.60967 8.59902 8.73026 8.6771 8.86512 8.71801C8.99997 8.75893 9.14362 8.76102 9.27961 8.72406C9.4156 8.68709 9.53842 8.61256 9.634 8.509L11 7.029L12.366 8.509C12.4616 8.61256 12.5844 8.68709 12.7204 8.72406C12.8564 8.76102 13 8.75893 13.1349 8.71801C13.2697 8.6771 13.3903 8.59902 13.4829 8.49272C13.5754 8.38642 13.6361 8.25621 13.658 8.117L13.721 7.72C14.0318 5.74378 14.0557 3.73305 13.792 1.75H15C15.0663 1.75 15.1299 1.77634 15.1768 1.82322C15.2237 1.87011 15.25 1.9337 15.25 2ZM12.278 1.75H9.722C9.50502 3.26367 9.46877 4.79777 9.614 6.32L10.265 5.614C10.3586 5.5125 10.4723 5.43149 10.5988 5.37608C10.7253 5.32067 10.8619 5.29207 11 5.29207C11.1381 5.29207 11.2747 5.32067 11.4012 5.37608C11.5277 5.43149 11.6414 5.5125 11.735 5.614L12.386 6.32C12.5312 4.79777 12.495 3.26367 12.278 1.75ZM4 12.75H15.25V17C15.25 17.0663 15.2237 17.1299 15.1768 17.1768C15.1299 17.2237 15.0663 17.25 15 17.25H4C3.40326 17.25 2.83097 17.0129 2.40901 16.591C1.98705 16.169 1.75 15.5967 1.75 15C1.75 14.4033 1.98705 13.831 2.40901 13.409C2.83097 12.9871 3.40326 12.75 4 12.75Z" fill="#4F4F4F"/>
</svg>
