<svg width="21" height="23" viewBox="0 0 21 23" fill="none" xmlns="http://www.w3.org/2000/svg">
<path d="M8.859 0.995903C9.3244 0.623075 9.90293 0.419922 10.4992 0.419922C11.0956 0.419922 11.6741 0.623075 12.1395 0.995903L20.0145 7.2959C20.637 7.7939 21 8.5484 21 9.3464V19.8749C21 20.5711 20.7234 21.2388 20.2312 21.7311C19.7389 22.2233 19.0712 22.4999 18.375 22.4999H13.125C12.8266 22.4999 12.5405 22.3814 12.3295 22.1704C12.1185 21.9594 12 21.6733 12 21.3749V13.4999H9V21.3749C9 21.6733 8.88147 21.9594 8.6705 22.1704C8.45952 22.3814 8.17337 22.4999 7.875 22.4999H2.625C1.92881 22.4999 1.26113 22.2233 0.768845 21.7311C0.276562 21.2388 0 20.5711 0 19.8749V9.3449C0 8.5484 0.363 7.7939 0.9855 7.2959L8.859 0.995903ZM10.734 2.7524C10.6676 2.69934 10.585 2.67044 10.5 2.67044C10.415 2.67044 10.3324 2.69934 10.266 2.7524L2.391 9.0524C2.34688 9.08763 2.31129 9.13237 2.28687 9.18328C2.26246 9.23418 2.24985 9.28995 2.25 9.3464V19.8749C2.25 20.0819 2.418 20.2499 2.625 20.2499H6.75V12.3749C6.75 12.0765 6.86853 11.7904 7.0795 11.5794C7.29048 11.3684 7.57663 11.2499 7.875 11.2499H13.125C13.4234 11.2499 13.7095 11.3684 13.9205 11.5794C14.1315 11.7904 14.25 12.0765 14.25 12.3749V20.2499H18.375C18.4745 20.2499 18.5698 20.2104 18.6402 20.1401C18.7105 20.0697 18.75 19.9744 18.75 19.8749V9.3449C18.7499 9.2887 18.7372 9.23323 18.7128 9.1826C18.6884 9.13197 18.6529 9.08748 18.609 9.0524L10.734 2.7524Z" fill="#4F4F4F"/>
</svg>
